<!DOCTYPE svg PUBLIC "-//W3C//DTD SVG 1.1//EN" "http://www.w3.org/Graphics/SVG/1.1/DTD/svg11.dtd">
<!-- Uploaded to: SVG Repo, www.svgrepo.com, Transformed by: SVG Repo Mixer Tools -->
<svg fill="#ff0000" height="800px" width="800px" version="1.1" id="Layer_1" xmlns="http://www.w3.org/2000/svg" xmlns:xlink="http://www.w3.org/1999/xlink" viewBox="0 0 511.999 511.999" xml:space="preserve" stroke="#ff0000">
<g id="SVGRepo_bgCarrier" stroke-width="0"/>
<g id="SVGRepo_tracerCarrier" stroke-linecap="round" stroke-linejoin="round"/>
<g id="SVGRepo_iconCarrier"> <g> <g> <path d="M371.835,178.142c-0.831-7.704-2.92-15.032-6.044-21.792l121.016-50.127l-12.076-29.152l-129.239,53.533 c-11.985-9.487-27.112-15.173-43.55-15.173h-71.877c-36.202,0-66.091,27.505-69.893,62.713H45.325v47.125h410.053v-0.001 l-26.674-47.125H371.835z"/> </g> </g> <g> <g> <path d="M511.999,256.821H34.586v0L0,301.342l45.548,58.63c2.936,41.821,37.874,74.956,80.427,74.956 c26.57,0,50.172-12.92,64.874-32.801c14.703,19.88,38.305,32.801,64.873,32.801c26.57,0,50.172-12.92,64.874-32.801 c14.703,19.88,38.305,32.801,64.873,32.801c44.471,0,80.651-36.179,80.651-80.651c0-10.833-2.161-21.166-6.05-30.612 L511.999,256.821z M125.976,383.525c-16.128,0-29.249-13.121-29.249-29.249s13.121-29.248,29.249-29.248 c16.128,0,29.249,13.12,29.249,29.248S142.103,383.525,125.976,383.525z M255.724,383.525c-16.128,0-29.248-13.121-29.248-29.249 s13.12-29.248,29.248-29.248c16.128,0,29.248,13.12,29.248,29.248S271.851,383.525,255.724,383.525z M385.472,383.525 c-16.128,0-29.249-13.121-29.249-29.249s13.121-29.248,29.249-29.248s29.249,13.12,29.249,29.248S401.599,383.525,385.472,383.525 z"/> </g> </g> </g>
</svg>