<!DOCTYPE svg PUBLIC "-//W3C//DTD SVG 1.1//EN" "http://www.w3.org/Graphics/SVG/1.1/DTD/svg11.dtd">
<!-- Uploaded to: SVG Repo, www.svgrepo.com, Transformed by: SVG Repo Mixer Tools -->
<svg fill="#ff0000" height="800px" width="800px" version="1.1" id="Layer_1" xmlns="http://www.w3.org/2000/svg" xmlns:xlink="http://www.w3.org/1999/xlink" viewBox="0 0 512 512" xml:space="preserve" stroke="#ff0000">
<g id="SVGRepo_bgCarrier" stroke-width="0"/>
<g id="SVGRepo_tracerCarrier" stroke-linecap="round" stroke-linejoin="round"/>
<g id="SVGRepo_iconCarrier"> <g> <g> <polygon points="314.642,198.062 314.642,166.957 197.358,166.957 197.358,198.062 0,274.306 0,361.331 0,380.011 0,405.26 33.391,405.26 33.391,376.252 116.004,366.954 116.004,405.26 149.395,405.26 149.395,363.195 203.258,357.132 231.383,427.762 208.451,427.762 208.451,461.153 303.548,461.153 303.548,427.762 280.617,427.762 308.742,357.132 362.605,363.195 362.605,405.26 395.996,405.26 395.996,366.954 478.609,376.252 478.609,405.26 512,405.26 512,380.011 512,361.331 512,274.306 "/> </g> </g> <g> <g> <path d="M256,50.847c-32.335,0-58.642,26.307-58.642,58.642v24.076h117.284v-24.076C314.642,77.154,288.335,50.847,256,50.847z M256,102.608c-5.744,0-10.401-4.657-10.401-10.401c0-5.746,4.657-10.401,10.401-10.401c5.744,0,10.401,4.657,10.401,10.401 C266.401,97.951,261.744,102.608,256,102.608z"/> </g> </g> </g>
</svg>