<!DOCTYPE svg PUBLIC "-//W3C//DTD SVG 1.1//EN" "http://www.w3.org/Graphics/SVG/1.1/DTD/svg11.dtd">
<!-- Uploaded to: SVG Repo, www.svgrepo.com, Transformed by: SVG Repo Mixer Tools -->
<svg fill="#f20707" version="1.1" id="Layer_1" xmlns="http://www.w3.org/2000/svg" xmlns:xlink="http://www.w3.org/1999/xlink" viewBox="0 0 496.024 496.024" xml:space="preserve" width="800px" height="800px">
<g id="SVGRepo_bgCarrier" stroke-width="0"/>
<g id="SVGRepo_tracerCarrier" stroke-linecap="round" stroke-linejoin="round"/>
<g id="SVGRepo_iconCarrier"> <g> <g> <g> <path d="M440.992,128.216C421.216,65.504,367.416,22.312,302.856,16.664C299.76,7.008,290.688,0,280.008,0h-64 c-10.632,0-19.672,6.952-22.816,16.664c-64.568,5.632-118.4,48.832-138.168,111.552c-4.656,14.736-7.016,31.08-7.016,48.568 v156.784c0,8.184,2.104,16.296,6.08,23.448l62.528,112.552c8.904,16.048,25.144,26.168,42.352,26.432 c13.072,0.088,25.336-4.728,34.632-13.872c9.288-9.16,14.408-21.376,14.408-34.416v-4.16c0-9.064-2.536-17.904-7.344-25.592 L179.44,384h0.568c15.024,0,29.384-7.176,38.4-19.192c6.016-8.016,15.584-12.808,25.6-12.808h8 c10.016,0,19.584,4.792,25.6,12.808c9.016,12.016,23.376,19.192,38.4,19.192h0.568l-21.224,33.96 c-4.808,7.688-7.344,16.536-7.344,25.592v2.776c0,21.768,13.824,41.264,33.616,47.424c4.928,1.528,9.912,2.272,14.816,2.272 c17.208,0,33.328-9.12,42.08-24.864l63.416-114.144c3.976-7.16,6.08-15.264,6.08-23.456V176.784 C448.008,159.296,445.648,142.952,440.992,128.216z M304.008,32.936c20.184,2.128,39.144,8.312,56,17.936v15.104 c0,3.896-3.944,6.896-7.696,5.8l-43.928-12.552c-2.576-0.744-4.376-3.128-4.376-5.808V32.936z M136.008,50.872 c16.856-9.624,35.816-15.808,56-17.936v20.48c0,2.68-1.8,5.064-4.376,5.8l-43.928,12.552c-3.712,1.096-7.696-1.912-7.696-5.8 V50.872z M70.28,133.032c9.264-29.384,26.832-53.992,49.728-71.56v4.504c0,12.144,9.88,22.024,22.032,22.024 c2.056,0,4.096-0.28,6.056-0.84l43.928-12.552c9.416-2.696,15.984-11.408,15.984-21.192V31.624V24c0-4.416,3.584-8,8-8h64 c4.416,0,8,3.584,8,8.216v7.624v21.568c0,9.792,6.568,18.504,15.984,21.184l43.928,12.552c1.96,0.56,4,0.84,6.056,0.84 c12.152,0.016,22.032-9.864,22.032-22.016v-4.496c22.896,17.576,40.464,42.176,49.728,71.56h0.008 c1.2,3.808,2.176,7.776,3.04,11.832l-11.496-6.192C365.432,110.76,306.896,96,248.008,96s-117.424,14.76-169.28,42.672 l-11.488,6.184C68.096,140.8,69.08,136.832,70.28,133.032z M316.008,368c-10.016,0-19.584-4.792-25.6-12.808 c-9.016-12.016-23.376-19.192-38.4-19.192h-8c-15.024,0-29.384,7.176-38.4,19.192c-6.016,8.016-15.584,12.808-25.6,12.808H169.44 l-41.432-66.296V232c0-22.056,17.944-40,40-40h160c22.056,0,40,17.944,40,40v69.704L326.576,368H316.008z M432.008,333.56 c0,5.48-1.408,10.896-4.064,15.68l-63.416,114.152c-7.52,13.528-23.216,19.712-38.16,15.08 c-13.168-4.096-22.36-17.312-22.36-32.144v-2.776c0-6.056,1.696-11.976,4.904-17.112l75.096-120.144V232 c0-30.872-25.128-56-56-56h-160c-30.872,0-56,25.128-56,56v74.296l75.096,120.152c3.208,5.128,4.904,11.056,4.904,17.104v4.16 c0,8.72-3.424,16.88-9.632,23.008c-6.096,5.992-14.12,9.28-22.656,9.28c-0.168,0-0.336-0.008-0.504-0.008 c-11.504-0.168-22.472-7.144-28.608-18.192L68.08,349.24c-2.664-4.776-4.072-10.2-4.072-15.68V176.784 c0-4.168,0.168-8.24,0.456-12.248l21.848-11.768C135.84,126.096,191.76,112,248.008,112s112.168,14.096,161.688,40.768 l21.856,11.776c0.288,4,0.456,8.08,0.456,12.24V333.56z"/> <rect x="240.008" y="144" width="16" height="16"/> <rect x="272.008" y="144" width="16" height="16"/> <rect x="208.008" y="144" width="16" height="16"/> </g> </g> </g> </g>
</svg>